<svg width="24" height="24" viewBox="0 0 24 24" fill="none" xmlns="http://www.w3.org/2000/svg">
<path d="M13.0537 14.1203C13.0531 13.3462 13.2133 12.5796 13.5252 11.8643C13.8372 11.149 14.2946 10.4991 14.8716 9.95172C15.4485 9.40435 16.1336 8.97025 16.8875 8.67431C17.6414 8.37836 18.4494 8.22638 19.2653 8.22701C19.6385 8.22869 20.0108 8.26194 20.3779 8.32639C20.2255 8.09029 20.0589 7.86267 19.8789 7.64472C18.2325 5.75128 15.3537 4.29335 13.0487 6.13473C12.8431 6.30851 12.6482 6.49345 12.465 6.68858C11.951 7.31463 11.5141 7.99433 11.1628 8.71452C11.1206 8.79878 11.0612 8.87432 10.9882 8.93682C10.9152 8.99932 10.83 9.04758 10.7373 9.07879C10.6446 9.11 10.5464 9.12355 10.4481 9.11872C10.3499 9.11389 10.2537 9.09079 10.1649 9.05065C10.0761 9.01059 9.99658 8.95431 9.93071 8.88504C9.86484 8.81577 9.81391 8.73484 9.78101 8.64692C9.74811 8.55899 9.7339 8.46579 9.73899 8.37262C9.74408 8.27945 9.76842 8.18815 9.81073 8.10393C9.85563 8.01399 9.90055 7.9335 9.95044 7.84829C8.69709 7.81204 7.45552 7.60641 6.26335 7.23764C5.36616 6.95159 4.52371 6.52956 3.76874 5.98796C3.00775 6.42684 2.33256 6.98737 1.77305 7.64472C-0.35235 10.1157 -0.35733 13.2162 0.66047 16.1652V16.2315C1.69823 19.1805 3.86859 23.0811 7.32611 23.8905C7.90404 24.016 8.50439 24.016 9.08232 23.8905C9.74589 23.758 10.2797 23.2941 11.0031 23.3746C11.5369 23.4314 12.0009 23.7627 12.4999 23.8953C13.0828 24.0349 13.6931 24.0349 14.2761 23.8953C16.3316 23.4219 17.9281 21.8408 19.1106 20.0231C17.4876 19.9872 15.9441 19.3489 14.8116 18.2453C13.6792 17.1416 13.0481 15.6606 13.0537 14.1203Z" fill="black" fill-opacity="0.25"/>
<path d="M5.78936 5.49572C7.14989 6.10247 8.63173 6.42531 10.1349 6.44244C10.0466 5.97678 9.91135 5.52025 9.73092 5.07916C9.11068 3.5176 7.94953 2.20234 6.43799 1.34907C5.09117 0.610571 3.59487 0.15082 2.04745 0C2.11335 0.756669 2.29664 1.49993 2.59132 2.20582C3.18436 3.6444 4.32591 4.81879 5.78936 5.49572Z" fill="black" fill-opacity="0.25"/>
<path d="M22.618 17.2682C23.0563 16.8534 23.404 16.3605 23.6412 15.8179C23.8783 15.2753 24.0003 14.6936 24 14.1061C24.0006 13.518 23.8789 12.9355 23.6418 12.3921C23.4046 11.8486 23.0567 11.355 22.618 10.9394C22.1806 10.524 21.661 10.1946 21.0891 9.97042C20.5171 9.7462 19.9041 9.63152 19.2852 9.63291C18.6656 9.63142 18.0517 9.74604 17.4789 9.97025C16.9061 10.1944 16.3857 10.5238 15.9475 10.9394C15.5041 11.3553 15.1522 11.8507 14.9123 12.3968C14.6725 12.9429 14.5495 13.5288 14.5505 14.1204C14.5495 14.7074 14.6707 15.2889 14.907 15.8315C15.1433 16.3741 15.4901 16.8672 15.9275 17.2824C16.3655 17.6987 16.8858 18.0287 17.4586 18.2537C18.0314 18.4787 18.6453 18.5942 19.2652 18.5936C19.8888 18.5948 20.5064 18.4782 21.082 18.2506C21.6576 18.0231 22.1797 17.6891 22.618 17.2682ZM19.0108 15.9712C18.8782 16.1085 18.6942 16.1909 18.4982 16.2006C18.3022 16.2104 18.1101 16.1467 17.9631 16.0233L16.7357 15.0008C16.587 14.876 16.4964 14.7006 16.4833 14.5127C16.4702 14.3247 16.5358 14.1396 16.6659 13.9973C16.7974 13.8563 16.9823 13.7702 17.1804 13.7578C17.3784 13.7454 17.5737 13.8076 17.7236 13.931L18.4021 14.4991L20.8518 11.9713C20.9178 11.9027 20.9975 11.8473 21.0863 11.808C21.175 11.7687 21.271 11.7464 21.3688 11.7425C21.4667 11.7385 21.5644 11.7529 21.6563 11.7849C21.7482 11.8168 21.8326 11.8657 21.9046 11.9287C21.977 11.9918 22.0356 12.0678 22.077 12.1524C22.1185 12.237 22.1419 12.3285 22.1461 12.4216C22.1503 12.5148 22.1351 12.6079 22.1014 12.6955C22.0676 12.7831 22.016 12.8635 21.9495 12.9322L19.0108 15.9712Z" fill="black" fill-opacity="0.25"/>
</svg>
